# xmcd
#
# Track frame offsets: 
#        150
#        24090
#        45098
#        57640
#        73907
#        84197
#        100082
#        107375
#        122837
#        136082
#        151330
#        164880
#        178553
#
# Disc length: 2649 seconds
#
# Revision: 3
# Processed by: cddbd v1.5.2PL0 Copyright (c) Steve Scherf et al.
# Submitted via: ExactAudioCopy v0.99pb5
#
DISCID=9e0a570d
DTITLE=Hot Dogs - Ja so warns de alten Rittersleut
DYEAR=1995
DGENRE=Schlager
TTITLE0=Ja so warns die alten Rittersleut
TTITLE1=Die Moritat vom Hintertupfer-Bene
TTITLE2=Schaug hi, da liegt a toter Fisch im Wasser
TTITLE3=Der Wildschütz Jennerwein
TTITLE4=I bin der Wirt von Stoa
TTITLE5=Bayern is a Weltmacht
TTITLE6=Bayerischer Defiliermarsch
TTITLE7=Eh-La-Bas
TTITLE8=Ja, mia san mitm Radl da
TTITLE9=I Möcht a Herz ham mit Kartoffeln
TTITLE10=Hä Mare
TTITLE11=Preissn-Blues
TTITLE12=Ice Cream
EXTD=
EXTT0=
EXTT1=
EXTT2=
EXTT3=
EXTT4=
EXTT5=
EXTT6=
EXTT7=
EXTT8=
EXTT9=
EXTT10=
EXTT11=
EXTT12=
PLAYORDER=
